<?xml version="1.0" standalone="no"?>
<!DOCTYPE svg PUBLIC "-//W3C//DTD SVG 20010904//EN"
 "http://www.w3.org/TR/2001/REC-SVG-20010904/DTD/svg10.dtd">
<svg version="1.0" xmlns="http://www.w3.org/2000/svg"
 width="640.000000pt" height="640.000000pt" viewBox="0 0 640.000000 640.000000"
 preserveAspectRatio="xMidYMid meet">
<metadata>
Created by potrace 1.14, written by Peter Selinger 2001-2017
</metadata>
<g transform="translate(0.000000,640.000000) scale(0.100000,-0.100000)"
fill="#000000" stroke="none">
<path d="M2880 6155 c-321 -36 -596 -110 -895 -240 -146 -63 -361 -182 -471
-261 -23 -16 -63 -45 -90 -63 -249 -175 -536 -470 -717 -736 -280 -410 -454
-867 -513 -1350 -43 -353 -21 -732 61 -1080 34 -144 125 -411 181 -533 43 -94
56 -120 124 -247 79 -149 338 -506 371 -513 14 -3 16 5 12 45 -8 79 -22 112
-88 197 -34 45 -89 124 -122 176 -59 93 -163 275 -163 284 0 3 -19 44 -41 93
-178 379 -271 852 -256 1303 32 963 518 1821 1339 2367 286 189 904 444 1184
487 16 3 65 11 109 17 124 20 506 17 640 -4 216 -35 417 -91 559 -157 33 -16
113 -49 176 -73 283 -109 588 -290 820 -487 183 -156 317 -301 498 -540 155
-204 319 -525 409 -800 172 -527 188 -1102 48 -1647 -98 -376 -295 -779 -516
-1056 -51 -63 -54 -69 -63 -147 -3 -25 -9 -56 -13 -70 -6 -23 -5 -24 12 -10
54 45 253 313 342 461 386 645 520 1422 372 2164 -103 513 -351 1018 -686
1391 -147 164 -380 379 -497 459 -17 12 -53 37 -81 56 -133 94 -411 244 -565
304 -25 10 -58 23 -75 30 -115 49 -356 116 -535 149 -245 45 -620 59 -870 31z"/>
<path d="M2975 6064 c-330 -48 -500 -98 -737 -213 -445 -217 -792 -562 -1017
-1007 -155 -308 -231 -634 -231 -991 0 -609 239 -1176 674 -1597 272 -263 593
-445 971 -550 363 -100 768 -101 1145 0 304 80 631 249 853 440 518 444 797
1040 797 1702 0 535 -165 1000 -505 1422 -47 59 -226 237 -290 289 -313 256
-650 409 -1070 487 -87 16 -514 29 -590 18z m600 -203 c200 -38 438 -118 568
-189 90 -49 211 -122 242 -145 177 -131 337 -285 443 -424 223 -293 354 -599
409 -955 22 -148 22 -451 0 -593 -96 -593 -405 -1082 -891 -1407 -375 -251
-808 -366 -1272 -338 -701 42 -1333 451 -1673 1081 -179 332 -264 742 -231
1124 19 227 51 364 136 585 118 310 337 610 608 835 283 235 691 409 1031 441
39 3 72 8 75 11 3 3 104 3 225 0 167 -4 247 -10 330 -26z"/>
<path d="M2718 5615 c-529 -154 -951 -521 -1175 -1020 -110 -244 -155 -460
-155 -740 0 -192 16 -321 62 -487 91 -328 249 -594 493 -828 291 -280 637
-446 1039 -500 123 -17 373 -14 493 5 400 64 736 231 1016 506 163 160 267
304 364 504 80 165 127 315 159 502 9 56 -10 45 -23 -13 -25 -108 -163 -360
-274 -499 -110 -136 -342 -326 -503 -412 -90 -47 -275 -117 -377 -142 -475
-114 -976 -16 -1357 267 -394 293 -622 697 -670 1190 -22 216 16 484 98 707
85 232 195 399 386 591 172 171 344 283 555 360 88 32 97 44 36 44 -28 -1
-103 -16 -167 -35z"/>
<path d="M3235 5575 c-316 -58 -620 -230 -840 -475 -124 -139 -253 -366 -297
-525 -37 -130 -55 -215 -48 -220 4 -3 20 28 35 68 56 151 194 359 311 468 201
186 441 305 696 345 119 18 332 21 415 4 309 -61 526 -171 719 -364 195 -196
319 -429 370 -693 26 -134 23 -369 -5 -502 -81 -380 -333 -719 -659 -885 -101
-51 -178 -86 -190 -86 -7 0 -12 -4 -12 -10 0 -14 18 -13 92 5 322 75 638 282
837 549 61 83 131 189 131 201 0 2 14 35 31 72 93 202 131 383 131 611 -1 246
-53 458 -163 670 -170 326 -475 589 -820 706 -183 62 -221 68 -444 72 -153 2
-232 -1 -290 -11z"/>
<path d="M2668 4558 l-3 -123 -120 -5 -120 -5 -3 -245 c-1 -135 0 -255 3 -267
5 -22 9 -23 125 -23 l120 0 0 -32 c0 -54 -6 -57 -130 -60 l-115 -3 -3 -262
c-3 -303 -15 -274 118 -272 145 2 129 17 132 -123 l3 -123 390 -3 c446 -3 515
3 620 53 127 61 210 148 261 274 60 148 55 286 -16 426 -22 44 -40 83 -40 87
0 4 13 29 29 55 58 95 81 237 56 354 -34 165 -129 287 -279 359 -114 54 -172
60 -631 60 l-394 0 -3 -122z m965 -77 c124 -63 188 -162 195 -301 5 -104 -18
-173 -81 -251 -75 -93 -74 -80 -20 -142 74 -84 96 -137 101 -237 3 -71 0 -95
-20 -147 -41 -108 -123 -184 -236 -218 -37 -12 -122 -15 -399 -15 l-353 0 0
205 0 205 -75 0 -75 0 0 -74 c0 -83 -8 -96 -58 -89 l-33 5 3 112 3 111 150 -2
c83 -1 293 -2 468 -3 l319 0 29 -29 c51 -51 36 -146 -26 -176 -28 -12 -82 -15
-327 -15 -215 0 -297 -3 -306 -12 -7 -7 -12 -39 -12 -75 0 -57 2 -63 23 -68
12 -3 159 -4 327 -3 286 3 308 4 350 24 118 56 179 180 150 306 -19 80 -64
136 -145 181 -39 21 -52 22 -400 27 l-360 5 -5 205 -5 205 -70 0 -70 0 -5 -85
-5 -85 -40 0 -40 0 -3 113 -3 112 471 0 472 0 29 -29 c47 -48 38 -141 -18
-178 -24 -16 -60 -19 -338 -23 l-310 -5 -3 -49 c-2 -27 -1 -60 3 -73 l6 -24
327 3 c315 3 328 4 368 25 205 109 202 391 -4 486 -45 21 -65 22 -402 27
l-355 5 -3 43 -3 43 373 -3 374 -3 67 -34z"/>
<path d="M1005 1260 c-4 -6 20 -38 53 -72 l59 -61 144 -1 c140 -1 144 -2 147
-23 4 -30 -36 -37 -172 -28 -127 8 -128 7 -145 -65 -6 -25 -20 -78 -31 -119
-11 -41 -20 -81 -20 -88 0 -10 44 -13 215 -13 l214 0 35 30 c40 36 62 108 52
172 -6 35 -3 45 18 67 30 32 59 129 50 165 -3 15 -14 31 -24 36 -26 14 -587
13 -595 0z m363 -304 c-3 -17 -11 -21 -50 -24 -37 -2 -48 0 -48 12 0 27 26 42
64 38 31 -4 37 -8 34 -26z"/>
<path d="M1745 1261 c-42 -18 -59 -54 -106 -228 -49 -181 -52 -215 -19 -233
10 -6 100 -10 200 -10 189 0 227 7 249 48 7 14 27 84 92 330 15 56 2 87 -41
96 -46 9 -351 6 -375 -3z m201 -146 c3 -8 -5 -51 -18 -97 l-23 -83 -39 -3
c-21 -2 -42 0 -47 5 -12 12 30 165 49 181 22 17 71 15 78 -3z"/>
<path d="M2254 1262 c-14 -8 -135 -452 -128 -464 3 -4 101 -8 218 -8 203 0
215 1 240 21 44 34 73 137 54 191 -9 25 -7 32 11 49 31 29 51 74 58 128 5 41
2 52 -16 70 -20 20 -30 21 -223 21 -112 0 -208 -4 -214 -8z m234 -158 c3 -22
-19 -34 -65 -34 -28 0 -37 14 -23 40 16 30 84 25 88 -6z m-40 -146 c-2 -19
-10 -24 -45 -26 -40 -3 -43 -1 -43 22 0 24 3 26 46 26 41 0 45 -2 42 -22z"/>
<path d="M2794 1263 c-6 -5 -21 -48 -34 -98 -12 -49 -38 -146 -56 -215 -19
-69 -34 -133 -34 -142 0 -17 16 -18 214 -18 l214 0 31 26 c38 32 66 118 57
176 -5 33 -2 44 18 69 45 54 63 156 32 187 -14 15 -44 17 -224 20 -114 1 -212
-1 -218 -5z m235 -142 c8 -5 11 -16 6 -30 -6 -19 -13 -22 -48 -19 -66 6 -63
58 3 58 14 0 31 -4 39 -9z m-31 -163 c-3 -20 -10 -23 -50 -26 -41 -3 -48 -1
-48 16 0 27 8 32 57 32 40 0 44 -2 41 -22z"/>
<path d="M3333 1258 c-6 -7 -23 -63 -38 -125 -24 -93 -27 -116 -17 -137 12
-26 12 -26 132 -26 98 0 122 -3 126 -15 4 -8 1 -22 -6 -30 -10 -12 -37 -15
-147 -12 -129 3 -136 2 -149 -18 -8 -12 -15 -39 -17 -61 l-2 -39 200 -3 c110
-1 209 0 220 2 54 14 69 46 125 256 41 158 50 204 40 210 -7 4 -49 7 -94 6
l-81 -1 -18 -60 c-9 -33 -21 -71 -25 -85 -6 -21 -14 -25 -55 -28 -26 -2 -47 0
-47 3 0 4 9 38 21 76 12 38 18 76 15 84 -7 20 -168 22 -183 3z"/>
<path d="M3883 1262 c-14 -9 -135 -450 -127 -463 3 -5 101 -9 217 -9 176 0
216 3 235 16 47 32 80 139 60 195 -10 30 -9 34 15 53 28 23 57 99 57 153 0 58
-19 63 -245 63 -110 0 -205 -4 -212 -8z m235 -159 c-3 -25 -7 -28 -46 -31 -31
-2 -44 1 -48 13 -10 25 15 45 58 45 37 0 39 -2 36 -27z m-38 -148 c0 -23 -4
-25 -44 -25 -48 0 -60 8 -50 34 4 11 19 16 50 16 40 0 44 -2 44 -25z"/>
<path d="M4449 1253 c-31 -13 -50 -45 -69 -118 -7 -27 -25 -96 -41 -151 -55
-195 -56 -194 199 -194 l192 0 29 28 c26 23 37 51 76 197 52 195 54 219 23
239 -29 19 -364 18 -409 -1z m211 -139 c0 -33 -34 -159 -46 -173 -8 -9 -23
-11 -48 -7 -39 7 -44 20 -26 72 5 16 14 48 20 71 11 42 21 50 73 52 19 1 27
-4 27 -15z"/>
<path d="M4962 1258 c-11 -14 -122 -425 -122 -452 0 -16 20 -17 219 -14 202 3
221 5 241 23 39 35 54 76 55 152 0 59 4 76 22 95 28 31 55 132 43 164 -6 14
-21 29 -35 34 -40 15 -410 13 -423 -2z m244 -143 c15 -37 -51 -60 -90 -32 -17
13 -17 14 -1 30 21 21 83 23 91 2z m-36 -148 c0 -23 -23 -37 -62 -37 -30 0
-38 4 -38 18 0 27 9 32 57 32 29 0 43 -4 43 -13z"/>
<path d="M1824 658 c-8 -12 12 -40 61 -88 l46 -45 144 -3 c139 -3 144 -4 147
-25 3 -21 8 -22 93 -22 88 0 90 0 103 28 21 44 27 130 10 144 -15 13 -597 23
-604 11z"/>
<path d="M4169 662 c-25 -3 -28 -11 -63 -140 -20 -75 -45 -168 -56 -207 -11
-38 -20 -82 -20 -97 l0 -28 89 0 90 0 17 58 c9 31 18 63 20 69 2 8 21 13 50
13 l47 0 -8 -32 c-3 -18 -9 -50 -12 -70 l-6 -38 84 0 c46 0 89 4 96 8 6 4 22
43 34 87 18 66 19 85 10 111 -10 29 -9 34 16 61 45 48 69 167 39 193 -14 11
-353 21 -427 12z m221 -167 c0 -23 -4 -25 -44 -25 -48 0 -60 8 -50 34 4 11 19
16 50 16 40 0 44 -2 44 -25z"/>
<path d="M2515 648 c-23 -64 -46 -152 -51 -195 -10 -79 -4 -83 138 -83 l119 0
-3 -27 -3 -28 -135 -2 c-74 -1 -140 -2 -147 -3 -13 0 -33 -60 -33 -97 l0 -23
215 0 215 0 30 28 c24 22 36 48 60 137 17 61 41 151 55 200 14 50 25 94 25 98
0 4 -44 6 -97 5 l-97 -3 -21 -78 c-19 -74 -34 -96 -62 -91 -7 1 -23 2 -34 3
-23 1 -24 -4 5 114 l14 57 -94 0 c-67 0 -96 -4 -99 -12z"/>
<path d="M3046 608 c-63 -225 -106 -400 -101 -408 4 -6 85 -10 207 -10 161 0
206 3 233 16 48 22 69 73 70 161 0 59 4 76 22 95 12 13 29 51 39 85 16 58 16
64 0 87 l-16 26 -220 0 -219 0 -15 -52z m262 -110 c-3 -20 -10 -23 -50 -26
-41 -3 -48 -1 -48 16 0 27 8 32 57 32 40 0 44 -2 41 -22z m-40 -140 c-2 -19
-10 -24 -42 -26 -43 -4 -62 8 -53 32 5 11 20 16 52 16 42 0 46 -2 43 -22z"/>
<path d="M3622 644 c-32 -22 -36 -33 -87 -228 -43 -167 -45 -179 -30 -202 l16
-24 217 2 217 3 12 25 c7 14 15 45 19 68 l6 41 -138 3 c-131 3 -139 4 -139 23
0 19 8 20 121 23 118 3 121 3 133 28 6 14 11 34 11 44 0 18 -9 20 -112 22
-105 3 -113 4 -113 23 0 19 8 20 141 23 97 2 145 6 151 15 5 6 15 31 21 53 23
79 38 74 -206 74 -180 0 -221 -3 -240 -16z"/>
<path d="M1914 443 c-3 -16 -15 -58 -25 -94 -10 -36 -19 -79 -19 -95 0 -58 2
-59 212 -62 188 -3 194 -3 228 20 27 18 38 36 52 83 10 33 16 65 14 72 -4 9
-30 13 -90 13 -80 0 -87 -2 -102 -25 -13 -20 -25 -25 -56 -25 l-41 0 7 38 c3
20 9 52 12 70 l6 32 -96 0 -96 0 -6 -27z"/>
</g>
</svg>
